<svg width="576" height="121" viewBox="0 0 576 121" fill="none" xmlns="http://www.w3.org/2000/svg">
<path fill-rule="evenodd" clip-rule="evenodd" d="M412.544 120.232C396.408 120.232 385.138 111.93 385.138 102.331C385.138 92.9258 392.465 89.1511 399.215 86.6855C399.282 86.6611 399.305 86.5795 399.259 86.5248C396.681 83.4583 392.181 75.5905 392.181 74.0527C392.181 72.4099 398.988 68.1817 407.509 66.7653C407.624 66.7463 407.623 66.5689 407.508 66.5491C396.616 64.6714 389.364 57.3759 389.364 47.5904C389.364 33.9702 400.25 24.2414 415.745 24.2414C420.855 24.2414 425.438 25.308 429.113 27.3446C429.729 27.7087 430.353 28.1162 430.974 28.5703C433.365 30.3191 435.625 32.6995 437.14 35.8463C438.138 38.0811 438.669 40.5821 438.669 43.3098C438.669 56.93 428.168 67.048 413.44 67.048C409.726 67.048 406.269 69.9017 406.269 72.7555C406.269 75.3498 406.397 78.9819 411.903 79.371L426.247 80.5385C441.23 81.706 446.481 86.1163 446.481 95.5856C446.481 108.946 431.882 120.232 412.544 120.232ZM433.228 25.1833L433.166 25.1389C451.043 7.82841 459.822 0.348602 464.563 0.348602C468.405 0.348602 465.235 13.849 460.337 16.1349L435.961 27.4639C435.113 26.6481 434.231 25.9166 433.34 25.2653C433.303 25.2378 433.265 25.2105 433.228 25.1833ZM396.151 99.2177C396.151 109.595 405.5 115.043 418.435 115.043C427.783 115.043 434.955 109.854 434.955 101.553C434.955 94.1588 428.68 89.8781 420.74 89.2295L401.826 87.5468C401.801 87.5445 401.775 87.5523 401.755 87.5684C398.188 90.4161 396.151 93.6563 396.151 99.2177ZM401.402 43.9584C401.402 54.9843 407.677 63.805 415.489 63.805C422.789 63.805 426.759 55.3734 426.759 47.4607C426.759 36.4348 420.612 27.4843 413.056 27.4843C405.628 27.4843 401.402 36.0456 401.402 43.9584ZM280.489 80.5211C280.504 85.1736 281.681 90.8069 287.788 90.8069C291.109 90.8069 297.103 87.8403 301.835 84.3509C301.86 84.3321 301.875 84.3023 301.875 84.2706V82.4632C301.875 82.4129 301.838 82.3705 301.788 82.364L291.973 81.0894C291.924 81.083 291.886 81.0399 291.886 80.9897C291.886 66.8935 291.888 56.0133 292.527 41.9037C293.039 30.6183 284.331 24.6513 273.829 24.6513C267.042 24.6513 247.832 38.7905 247.832 42.8117C247.832 45.2763 250.265 47.3518 254.235 47.3518C258.461 47.3518 263.328 44.8871 262.944 38.4013L262.562 31.8333C262.561 31.8032 262.572 31.7744 262.594 31.7545C263.902 30.6044 267.323 29.84 270.115 29.84C279.08 29.84 280.104 38.0122 280.104 46.8329V57.5356C280.104 57.5745 280.082 57.6099 280.047 57.6263L264.224 64.9932C253.723 69.9225 247.064 73.814 247.064 79.6512C247.064 87.0451 253.979 90.8069 261.279 90.8069C269.236 90.8069 273.779 86.5676 279.095 81.6067L279.098 81.6045C279.505 81.2248 279.916 80.8408 280.334 80.4541C280.351 80.4384 280.373 80.4295 280.397 80.4295C280.447 80.4295 280.489 80.4703 280.489 80.5211ZM267.938 81.7267C262.047 81.7267 259.998 79.781 259.998 74.722C259.998 71.4791 262.303 68.6253 267.682 66.1607L279.963 60.5183C280.029 60.4878 280.104 60.5362 280.104 60.6092V79.0645C280.104 79.1055 280.08 79.1422 280.042 79.1573C276.468 80.5728 272.14 81.7267 267.938 81.7267ZM200.957 89.5097C200.869 89.5097 200.824 89.4026 200.886 89.3394L203.894 86.2965C203.913 86.2775 203.939 86.2668 203.965 86.2668H209.171C211.604 86.2668 213.012 84.8399 213.012 82.3753V37.0396C213.012 37 212.989 36.9641 212.953 36.9481L203.467 32.7563C203.431 32.7403 203.408 32.7044 203.408 32.6648V29.5718C203.408 29.5347 203.428 29.5005 203.461 29.4833C209.476 26.3236 215.73 25.3352 219.823 24.6882L220.048 24.6525C220.054 24.6517 220.059 24.6513 220.064 24.6513H221.261C221.306 24.6513 221.345 24.6812 221.357 24.7245L224.39 35.6041C224.402 35.6473 224.441 35.6773 224.486 35.6773H224.51C224.528 35.6773 224.545 35.6729 224.561 35.6631C229.196 32.7966 243.625 24.6513 246.694 24.6513C248.358 24.6513 250.407 27.5051 250.407 30.2292C250.407 34.5098 248.102 37.8824 242.852 37.8824H226.331C225.435 37.8824 224.538 38.4013 224.538 39.5688V86.1603C224.538 86.218 224.587 86.2637 224.645 86.2601L234.691 85.6275C234.761 85.6231 234.814 85.6913 234.792 85.7586L233.58 89.441C233.567 89.482 233.528 89.5097 233.485 89.5097H200.957ZM450.114 89.0475C450.132 89.0796 450.166 89.0996 450.202 89.0996H484.687C484.781 89.0996 484.823 88.982 484.751 88.9224L480.497 85.4206C480.478 85.4051 480.454 85.397 480.43 85.3979L467.937 85.8529C467.88 85.8549 467.833 85.8096 467.833 85.7529V46.0336C467.833 38.8069 468.467 31.5802 469.356 24.3534C469.363 24.2938 469.317 24.2412 469.257 24.2412H468.089C463.623 24.4997 452.546 27.2049 446.765 29.4059C446.727 29.4206 446.702 29.4572 446.702 29.4986V31.3123C446.702 31.3509 446.725 31.3861 446.76 31.4027L456.25 35.8886C456.285 35.9051 456.307 35.9403 456.307 35.979V81.9651C456.307 84.4298 454.899 85.8566 452.465 85.8566H448.539C448.463 85.8566 448.415 85.938 448.451 86.0046L450.114 89.0475ZM502.876 90.3967C486.996 90.3967 475.086 76.9062 475.086 59.6539C475.086 38.1209 487.893 24.2412 503.645 24.2412C517.091 24.2412 525.672 31.5053 525.672 45.6444C525.672 47.3097 525.047 49.228 524.292 50.0251C524.273 50.0445 524.248 50.0548 524.221 50.0548H487.728C487.676 50.0548 487.633 50.0943 487.629 50.1459C487.508 51.5425 487.508 52.9417 487.508 54.4652C487.508 71.0689 496.857 81.3165 508.511 81.3165C515.939 81.3165 524.312 74.7037 527.77 69.238H528.945C529.008 69.238 529.056 69.2985 529.042 69.3608C525.884 83.3847 515.174 90.3967 502.876 90.3967ZM488.035 46.6981C488.028 46.7579 488.074 46.8119 488.134 46.8119H509.664C511.841 46.8119 513.378 45.385 513.378 43.569C513.378 33.8402 509.151 27.4841 502.236 27.4841C494.959 27.4841 489.591 34.7026 488.035 46.6981ZM333.871 59.6539C333.871 76.9062 345.781 90.3967 361.661 90.3967C372.913 90.3967 382.896 85.7145 388.79 76.7926C388.808 76.7652 388.812 76.7306 388.8 76.7002L388.19 75.1828C388.164 75.1175 388.08 75.099 388.028 75.1466C382.898 79.867 374.672 81.3165 367.296 81.3165C355.642 81.3165 346.294 71.0689 346.294 54.4652C346.294 52.9417 346.294 51.5425 346.414 50.1459C346.418 50.0943 346.461 50.0548 346.513 50.0548H383.006C383.033 50.0548 383.059 50.0445 383.077 50.0251C383.832 49.228 384.457 47.3097 384.457 45.6444C384.457 31.5053 375.877 24.2412 362.43 24.2412C346.678 24.2412 333.871 38.1209 333.871 59.6539ZM346.919 46.8119C346.859 46.8119 346.813 46.7579 346.821 46.6981C348.377 34.7026 353.744 27.4841 361.021 27.4841C367.937 27.4841 372.163 33.8402 372.163 43.569C372.163 45.385 370.626 46.8119 368.449 46.8119H346.919ZM137.856 90.3967C129.814 90.3967 123.045 88.8504 117.167 86.5283C117.132 86.5142 117.107 86.4809 117.105 86.4426L115.836 68.8412C115.832 68.7833 115.878 68.734 115.936 68.734H117.683C117.723 68.734 117.76 68.759 117.776 68.7962C123.154 81.5927 131.213 86.7646 141.441 86.7646C146.18 86.7646 150.79 84.5595 150.79 78.8519C150.79 73.5335 144.899 67.4369 134.27 62.2482C123.128 56.8001 116.725 51.352 116.725 42.4015C116.725 33.1916 124.409 24.2412 139.264 24.2412C144.753 24.2412 152.089 27.0637 155.863 29.7295C155.888 29.7468 155.902 29.7737 155.904 29.8035L156.93 44.4997C156.934 44.5576 156.888 44.6067 156.83 44.6067H155.073C155.038 44.6067 155.005 44.588 154.987 44.5575C149.869 35.8863 143.345 28.1327 134.014 28.1327C129.403 28.1327 125.049 30.5973 125.049 35.9157C125.049 40.8449 131.196 46.293 141.698 51.352C153.223 56.9298 159.114 62.2482 159.114 70.6798C159.114 82.484 149.894 90.3967 137.856 90.3967ZM533.113 86.5282C538.991 88.8503 545.76 90.3967 553.802 90.3967C565.84 90.3967 575.06 82.484 575.06 70.6798C575.06 62.2482 569.169 56.9298 557.644 51.352C547.142 46.293 540.995 40.8449 540.995 35.9157C540.995 30.5973 545.349 28.1327 549.96 28.1327C559.291 28.1327 565.815 35.8863 570.933 44.5575C570.951 44.588 570.984 44.6067 571.019 44.6067H572.776C572.834 44.6067 572.88 44.5576 572.876 44.4997L571.851 29.8035C571.848 29.7737 571.834 29.7468 571.809 29.7295C568.035 27.0637 560.699 24.2412 555.21 24.2412C540.355 24.2412 532.671 33.1916 532.671 42.4015C532.671 51.352 539.074 56.8001 550.216 62.2482C560.845 67.4369 566.736 73.5335 566.736 78.8519C566.736 84.5595 562.126 86.7646 557.387 86.7646C547.159 86.7646 539.1 82.0578 533.722 69.2627C533.706 69.2256 533.669 69.2005 533.629 69.2005H531.882C531.824 69.2005 531.778 69.2499 531.783 69.3079L533.051 86.4427C533.053 86.4809 533.078 86.5141 533.113 86.5282ZM185.144 90.3941C174.644 90.1986 169.392 85.2054 169.392 76.9036V32.0352C169.392 31.98 169.347 31.9352 169.292 31.9352H159.359C159.306 31.9352 159.263 31.8948 159.259 31.8425L159.111 29.8296C159.108 29.789 159.13 29.7507 159.166 29.7326L169.368 24.6827C169.383 24.6751 169.397 24.6636 169.406 24.6493L179.351 10.0135C179.369 9.9861 179.4 9.9697 179.434 9.9697H180.817C180.873 9.9697 180.917 10.0145 180.917 10.0697V29.4023C180.917 29.4575 180.962 29.5023 181.017 29.5023H199.369C199.424 29.5023 199.469 29.5471 199.469 29.6023V32.6452C199.469 32.7005 199.424 32.7452 199.369 32.7452H181.017C180.962 32.7452 180.917 32.79 180.917 32.8452V73.5309C180.917 80.6653 183.477 84.7377 188.856 84.7377C189.107 84.7377 189.352 84.7379 189.591 84.7381C193.714 84.7415 196.081 84.7435 199.828 83.6687C199.863 83.6585 199.902 83.6684 199.928 83.6949L200.707 84.497C200.741 84.5323 200.744 84.587 200.713 84.6252C200.177 85.284 195.535 90.5876 185.144 90.3941ZM306.064 76.9036C306.064 85.2054 311.316 90.1986 321.816 90.3941C332.207 90.5876 336.85 85.284 337.386 84.6252C337.417 84.587 337.413 84.5323 337.379 84.497L336.6 83.6949C336.575 83.6684 336.536 83.6585 336.5 83.6687C332.753 84.7435 330.386 84.7415 326.263 84.7381C326.024 84.7379 325.78 84.7377 325.528 84.7377C320.15 84.7377 317.59 80.6653 317.59 73.5309V32.8452C317.59 32.79 317.634 32.7452 317.69 32.7452H335.917C335.947 32.7452 335.976 32.7312 335.995 32.7071L338.394 29.6642C338.445 29.5986 338.398 29.5023 338.315 29.5023H317.69C317.634 29.5023 317.59 29.4575 317.59 29.4023V10.0697C317.59 10.0145 317.545 9.9697 317.49 9.9697H316.106C316.073 9.9697 316.042 9.9861 316.023 10.0135L306.079 24.6492C306.069 24.6635 306.056 24.6751 306.04 24.6827L294.433 30.4026C294.38 30.4287 294.361 30.4949 294.392 30.5451L295.228 31.888C295.246 31.9174 295.278 31.9352 295.313 31.9352H305.964C306.019 31.9352 306.064 31.98 306.064 32.0352V76.9036Z" fill="#080B28"/>
<path fill-rule="evenodd" clip-rule="evenodd" d="M58.1797 9.1207L58.1863 47.8907H57.9156V47.892H48.6523L48.6529 47.8907H48.6383L49.3479 46.1165H50.8906C51.4333 46.1165 51.8081 45.981 52.0486 45.7405C52.289 45.5001 52.4246 45.1252 52.4246 44.5825V26.9991C52.337 25.5105 51.8467 24.6133 51.1272 24.0737C50.32 23.4683 49.1867 23.2827 47.8854 23.2827C45.8101 23.2827 44.3544 24.0229 42.4537 24.9896C42.2457 25.0954 42.0323 25.2038 41.8123 25.3144C41.9144 25.9733 41.9651 26.6843 41.9651 27.4941V46.1026L45.4437 45.8115L44.7497 47.8935L33.0049 47.7537L33.6817 46.1179H34.9541C35.4618 46.1179 35.8398 45.9715 36.0908 45.7205C36.3418 45.4695 36.4881 45.0916 36.4881 44.5839V29.203C36.4881 26.8001 35.9924 25.3311 35.1622 24.4603C34.3346 23.5924 33.1397 23.2827 31.6501 23.2827C30.0083 23.2827 28.3019 23.9297 26.0146 24.931V46.104L29.827 45.8135L29.1342 47.892H16.7513L17.461 46.1179H19.0036C19.5113 46.1179 19.8893 45.9715 20.1403 45.7205C20.3913 45.4695 20.5376 45.0916 20.5376 44.5839V24.1806L16.8348 22.1868V21.1163L16.9358 21.0692C19.5223 19.8622 22.3907 19.2892 24.3955 19.0601L24.4054 19.059H25.1315L25.9051 23.3691L26.0452 23.2321C27.9666 21.3527 30.3115 19.059 34.2136 19.059C36.0633 19.059 37.6669 19.4926 38.9274 20.3647C40.0969 21.1738 40.9599 22.3529 41.4506 23.8867L41.4622 23.8754C43.4457 21.9464 46.4148 19.059 50.4489 19.059C51.1513 19.059 51.8108 19.1329 52.4246 19.2722V9.1207H0V96.0456H86.9221V9.1207H58.1797ZM68.3792 19.0577C65.7784 19.0577 63.434 20.0358 61.4903 21.3204L61.4118 21.3723V24.1995L61.6377 24.1308C62.8966 23.7479 64.2413 23.5662 65.6448 23.5662C67.0714 23.5662 68.2477 23.916 69.0661 24.66C69.8815 25.4013 70.3689 26.5588 70.3689 28.2333V43.899C70.3689 43.9511 70.3667 44.0022 70.3626 44.0525L70.362 44.0596V47.8907H78.8557L79.6199 45.8112L75.8458 46.1025V26.9231C75.8458 24.4156 75.1827 22.4441 73.9035 21.0988C72.6231 19.7521 70.749 19.0577 68.3792 19.0577ZM56.5041 58.2934H55.7239L55.714 58.2945C53.5116 58.5462 49.7501 59.5327 46.9255 60.8509L46.8245 60.898V62.439L51.5036 63.9001V86.2314C51.5036 86.7906 51.3423 87.2092 51.0635 87.488C50.7847 87.7668 50.3661 87.9281 49.8069 87.9281H48.1287L47.3648 89.8378H60.2343L60.9827 87.5927L57.4686 87.9115V64.6971C59.9891 63.6057 62.9058 62.8858 64.905 62.8858C66.6023 62.8858 67.9147 63.226 68.8092 64.1797C69.7073 65.1371 70.2202 66.7506 70.2202 69.3864V86.2314C70.2202 86.7906 70.059 87.2092 69.7802 87.488C69.5014 87.7668 69.0828 87.9281 68.5236 87.9281H66.8454L66.0815 89.8378H78.9754L79.7237 87.5929L76.1852 87.9116V67.5148C76.1852 64.4658 75.4941 62.1554 74.1214 60.6061C72.7452 59.0529 70.71 58.2934 68.0868 58.2934C63.0838 58.2934 59.8308 60.9512 57.3579 63.0504L56.5041 58.2934ZM32.852 53.0824H33.6822C33.834 53.0824 33.9572 53.2056 33.9572 53.3574V60.3184H43.7758C43.9277 60.3184 44.0508 60.4415 44.0508 60.5934V62.4389C44.0508 62.5908 43.9277 62.7139 43.7758 62.7139H33.9572V82.2029C33.9572 83.9036 34.4378 85.2204 35.2222 86.1095C36.005 86.9969 37.1029 87.4729 38.3705 87.4729L38.725 87.4731C40.7311 87.4746 41.864 87.4755 43.6537 86.9685C43.7494 86.9414 43.8548 86.9676 43.9263 87.0408L44.2544 87.377C44.347 87.4718 44.3641 87.6277 44.2692 87.7396C43.8786 88.2004 41.551 90.6637 36.5534 90.5711C33.9643 90.5232 31.7674 89.8869 30.2129 88.7365C28.653 87.582 27.7495 85.9157 27.7495 83.8415V62.8991H23.0384C22.8865 62.8991 22.7634 62.776 22.7634 62.6241V61.7304C22.7634 61.626 22.8226 61.5305 22.9162 61.4841L27.8132 59.0546L32.6396 53.1828C32.6918 53.1193 32.7698 53.0824 32.852 53.0824Z" fill="#080B28"/>
</svg>
